<svg xmlns="http://www.w3.org/2000/svg" version="1.1" xmlns:xlink="http://www.w3.org/1999/xlink" xmlns:svgjs="http://svgjs.dev/svgjs" width="1000" height="1000" viewBox="0 0 1000 1000"><rect width="1000" height="1000" fill="#b19dd0"></rect><g transform="matrix(0.7,0,0,0.7,149.23628424877768,52.712469635627485)"><svg viewBox="0 0 193 247" data-background-color="#b19dd0" preserveAspectRatio="xMidYMid meet" height="1279" width="1000" xmlns="http://www.w3.org/2000/svg" xmlns:xlink="http://www.w3.org/1999/xlink"><g id="tight-bounds" transform="matrix(1,0,0,1,0.21056734283700962,-0.09999999999999432)"><svg viewBox="0 0 192.57886531432595 247.2" height="247.2" width="192.57886531432595"><g><svg viewBox="0 0 397.4975999999999 510.23982595192035" height="247.2" width="192.57886531432595"><g transform="matrix(1,0,0,1,0,316.1200084699222)"><svg viewBox="0 0 397.4975999999999 194.11981748199813" height="194.11981748199813" width="397.4975999999999"><g><svg viewBox="0 0 397.4975999999999 194.11981748199813" height="194.11981748199813" width="397.4975999999999"><g><rect width="397.4975999999999" height="12.058283224016227" x="0" y="147.91675144827585" fill="#c05858" opacity="1" stroke-width="0" stroke="transparent" fill-opacity="1" class="rect-o-0" data-fill-palette-color="primary" rx="1%" id="o-0" data-palette-color="#c05858"></rect></g><g transform="matrix(1,0,0,1,0.9887999999999693,0)"><svg viewBox="0 0 395.52 133.71196754563894" height="133.71196754563894" width="395.52"><g transform="matrix(1,0,0,1,0,0)"><svg width="395.52" viewBox="-0.30000001192092896 -36 147.8800048828125 50" height="133.71196754563894" data-palette-color="#c05858"><path d="M10.15 4.35L10.15 4.35Q7.45 4.35 5.05 3.38 2.65 2.4 1.18 0.4-0.3-1.6-0.3-4.6L-0.3-4.6Q-0.3-7.2 0.73-8.65 1.75-10.1 3.25-10.7 4.75-11.3 6.1-11.3L6.1-11.3Q4.75-9.85 4.05-8.1 3.35-6.35 3.35-4.6L3.35-4.6Q3.35-2.75 4.17-1.15 5 0.45 6.7 1.43 8.4 2.4 11 2.4L11 2.4Q13.25 2.4 15.4 1.58 17.55 0.75 18.93-0.88 20.3-2.5 20.3-4.9L20.3-4.9Q20.3-7.05 19.2-8.6 18.1-10.15 16.38-11.35 14.65-12.55 12.7-13.65 10.75-14.75 9.03-15.98 7.3-17.2 6.2-18.8 5.1-20.4 5.1-22.65L5.1-22.65Q5.1-24.75 6.1-27.05 7.1-29.35 8.97-31.4 10.85-33.45 13.48-34.73 16.1-36 19.35-36L19.35-36Q22.3-36 23.45-34.58 24.6-33.15 24.6-31L24.6-31Q24.6-29.2 23.98-27.13 23.35-25.05 22.45-23.18 21.55-21.3 20.75-20L20.75-20Q19.85-20.2 19.48-20.78 19.1-21.35 19.1-22.15L19.1-22.15Q19.1-23.2 19.55-24.55 20-25.9 20.58-27.35 21.15-28.8 21.6-30.18 22.05-31.55 22.05-32.65L22.05-32.65Q22.05-33.65 21.45-34.23 20.85-34.8 19.25-34.8L19.25-34.8Q16.9-34.8 14.9-33.7 12.9-32.6 11.4-30.88 9.9-29.15 9.08-27.25 8.25-25.35 8.25-23.8L8.25-23.8Q8.25-21.95 9.33-20.63 10.4-19.3 12.1-18.23 13.8-17.15 15.73-16.07 17.65-15 19.35-13.7 21.05-12.4 22.13-10.63 23.2-8.85 23.2-6.3L23.2-6.3Q23.2-3.7 22.05-1.73 20.9 0.25 18.98 1.6 17.05 2.95 14.75 3.65 12.45 4.35 10.15 4.35ZM32.2 2.2L32.2 2.2Q29.15 2.2 27.62 0.53 26.1-1.15 26.1-3.6L26.1-3.6Q26.1-5.85 27.22-8.35 28.35-10.85 30.22-13.05 32.1-15.25 34.35-16.63 36.6-18 38.8-18L38.8-18Q39.95-18 40.92-17.4 41.9-16.8 41.9-14.95L41.9-14.95Q41.9-13.05 40.77-11.38 39.65-9.7 37.82-8.4 36-7.1 33.82-6.28 31.65-5.45 29.5-5.25L29.5-5.25Q29.4-4.75 29.35-4.3 29.3-3.85 29.3-3.45L29.3-3.45Q29.3-2.7 29.47-1.95 29.65-1.2 30.1-0.58 30.55 0.05 31.32 0.4 32.1 0.75 33.25 0.75L33.25 0.75Q35.4 0.75 37.5-0.48 39.6-1.7 41.4-3.7 43.2-5.7 44.45-8.1L44.45-8.1 45.05-7.65Q43.7-4.65 41.62-2.45 39.55-0.25 37.12 0.98 34.7 2.2 32.2 2.2ZM29.75-6.2L29.75-6.2Q31.1-6.65 32.8-7.53 34.5-8.4 36.07-9.6 37.65-10.8 38.67-12.25 39.7-13.7 39.7-15.3L39.7-15.3Q39.7-15.85 39.5-16.15 39.3-16.45 38.65-16.45L38.65-16.45Q37.45-16.45 36.1-15.53 34.75-14.6 33.5-13.1 32.25-11.6 31.25-9.8 30.25-8 29.75-6.2ZM48.8 2.8L48.8 2.8Q46.4 2.8 44.8 1.2 43.2-0.4 43.2-3.6L43.2-3.6Q43.2-6.1 44.17-8.47 45.15-10.85 46.75-12.75 48.35-14.65 50.3-15.78 52.25-16.9 54.15-16.9L54.15-16.9Q56.2-16.9 56.95-15.7 57.7-14.5 57.7-13.2L57.7-13.2Q57.7-11.75 57.02-10.65 56.35-9.55 55.2-9.55L55.2-9.55Q54.35-9.55 53.75-10.3L53.75-10.3Q54.5-10.7 55.05-11.93 55.6-13.15 55.6-14.25L55.6-14.25Q55.6-14.85 55.37-15.18 55.15-15.5 54.5-15.5L54.5-15.5Q53.15-15.5 51.72-14.3 50.3-13.1 49.07-11.2 47.85-9.3 47.07-7.2 46.3-5.1 46.3-3.25L46.3-3.25Q46.3-1.7 47.05-0.4 47.8 0.9 49.95 0.9L49.95 0.9Q51.95 0.9 53.97-0.2 56-1.3 57.75-3.35 59.5-5.4 60.55-8.15L60.55-8.15 61.2-7.65Q60.05-4.65 58.05-2.27 56.05 0.1 53.65 1.45 51.25 2.8 48.8 2.8ZM63.34 1.5L63.34 1.5Q61.64 1.5 60.62-0.03 59.59-1.55 59.59-3.55L59.59-3.55Q59.59-5 60.07-6.9 60.54-8.8 61.24-10.65 61.94-12.5 62.69-13.7 63.44-14.9 63.99-14.9L63.99-14.9Q64.24-14.9 64.84-14.63 65.44-14.35 65.84-13.9L65.84-13.9Q65.29-13.05 64.49-11.3 63.69-9.55 63.09-7.55 62.49-5.55 62.49-3.85L62.49-3.85Q62.49-3.45 62.59-2.63 62.69-1.8 63.09-1.15 63.49-0.5 64.29-0.5L64.29-0.5Q65.24-0.5 66.24-1.48 67.24-2.45 68.27-4 69.29-5.55 70.24-7.35 71.19-9.15 72.02-10.8 72.84-12.45 73.39-13.55L73.39-13.55Q73.69-13.5 74.27-13.35 74.84-13.2 75.32-12.95 75.79-12.7 75.79-12.25L75.79-12.25Q75.79-12.05 75.29-10.93 74.79-9.8 74.12-8.18 73.44-6.55 72.94-4.9 72.44-3.25 72.44-2L72.44-2Q72.44-1.1 72.82-0.55 73.19 0 74.09 0L74.09 0Q75.14 0 76.64-0.95 78.14-1.9 79.69-3.73 81.24-5.55 82.44-8.1L82.44-8.1 83.09-7.65Q82.04-4.95 80.34-2.88 78.64-0.8 76.74 0.35 74.84 1.5 73.04 1.5L73.04 1.5Q71.74 1.5 70.97 1 70.19 0.5 69.87-0.35 69.54-1.2 69.54-2.2L69.54-2.2Q69.54-2.8 69.64-3.43 69.74-4.05 69.89-4.7L69.89-4.7Q68.99-3.05 67.94-1.63 66.89-0.2 65.74 0.65 64.59 1.5 63.34 1.5ZM90.14 1.3L90.14 1.3Q88.44 1.3 87.47 0.4 86.49-0.5 86.49-1.95L86.49-1.95Q86.49-3.45 87.19-5.1 87.89-6.75 88.57-8.38 89.24-10 89.24-11.3L89.24-11.3Q89.24-12.9 88.32-13.68 87.39-14.45 86.44-15.1L86.44-15.1Q85.29-12.15 84.04-9.5 82.79-6.85 81.99-5.5L81.99-5.5 81.54-6.35Q82.24-7.65 83.37-10.15 84.49-12.65 85.59-15.85L85.59-15.85Q85.09-16.35 85.09-17.05L85.09-17.05Q85.09-18.55 85.94-19.5 86.79-20.45 87.19-20.45L87.19-20.45Q87.74-20.45 87.82-19.98 87.89-19.5 87.89-19.25L87.89-19.25Q87.89-19 87.62-18.28 87.34-17.55 87.34-17.4L87.34-17.4Q87.34-16.7 88.12-16.13 88.89-15.55 89.89-14.83 90.89-14.1 91.67-13.08 92.44-12.05 92.44-10.45L92.44-10.45Q92.44-8.95 91.82-7.4 91.19-5.85 90.57-4.45 89.94-3.05 89.94-2L89.94-2Q89.94-1.1 90.39-0.8 90.84-0.5 91.44-0.5L91.44-0.5Q92.64-0.5 93.92-1.25 95.19-2 96.39-3.15 97.59-4.3 98.54-5.58 99.49-6.85 99.94-7.95L99.94-7.95 100.59-7.45Q99.64-5.35 97.99-3.33 96.34-1.3 94.32 0 92.29 1.3 90.14 1.3ZM102.49 1.3L102.49 1.3Q100.54 1.3 99.59 0.08 98.64-1.15 98.64-2.9L98.64-2.9Q98.64-4.05 99.06-5.8 99.49-7.55 100.19-9.47 100.89-11.4 101.81-13.1 102.74-14.8 103.79-15.88 104.84-16.95 105.84-16.95L105.84-16.95Q106.29-16.95 106.61-16.68 106.94-16.4 106.94-15.85L106.94-15.85Q106.94-15.25 106.16-13.9 105.39-12.55 104.34-10.8 103.29-9.05 102.51-7.13 101.74-5.2 101.74-3.45L101.74-3.45Q101.74-1.65 102.34-1.05 102.94-0.45 104.19-0.45L104.19-0.45Q105.89-0.45 107.81-2.15 109.74-3.85 111.89-8.1L111.89-8.1 112.34-7.6Q110.89-3.3 108.16-1 105.44 1.3 102.49 1.3ZM108.49-21.6L108.49-21.6Q107.69-21.6 107.06-22 106.44-22.4 106.44-23.25L106.44-23.25Q106.44-24.3 107.66-25.08 108.89-25.85 110.09-25.85L110.09-25.85Q110.84-25.85 111.29-25.5 111.74-25.15 111.74-24.3L111.74-24.3Q111.74-23.35 110.71-22.48 109.69-21.6 108.49-21.6ZM110.29 14L110.29 14Q109.79 14 109.14 13.68 108.49 13.35 108.01 12.4 107.54 11.45 107.54 9.6L107.54 9.6Q107.54 7.4 108.29 3.88 109.04 0.35 110.34-3.9 111.64-8.15 113.34-12.63 115.04-17.1 117.01-21.28 118.99-25.45 121.06-28.78 123.14-32.1 125.14-34.05 127.14-36 128.94-36L128.94-36Q129.99-36 130.31-35.35 130.64-34.7 130.64-33.8L130.64-33.8Q130.64-31.65 129.46-29.1 128.29-26.55 126.34-23.98 124.39-21.4 122.04-19.07 119.69-16.75 117.29-15.1L117.29-15.1Q117.04-14.5 116.81-13.88 116.59-13.25 116.34-12.6L116.34-12.6Q116.89-12.5 117.21-12.03 117.54-11.55 117.59-11L117.59-11Q117.94-8.75 118.34-6.98 118.74-5.2 119.56-4.2 120.39-3.2 121.94-3.2L121.94-3.2Q123.69-3.2 124.89-4.48 126.09-5.75 127.49-8.1L127.49-8.1 128.24-7.6Q126.99-4.6 125.06-3.25 123.14-1.9 121.69-1.9L121.69-1.9Q120.79-1.9 119.81-2.35 118.84-2.8 117.99-3.55L117.99-3.55Q117.99-0.4 117.31 2.7 116.64 5.8 115.54 8.35 114.44 10.9 113.09 12.45 111.74 14 110.29 14ZM111.59 11.6L111.59 11.6Q112.14 11.6 112.84 10.6 113.54 9.6 114.21 7.98 114.89 6.35 115.44 4.4 115.99 2.45 116.34 0.5 116.69-1.45 116.69-3L116.69-3Q116.69-4.55 116.29-5.83 115.89-7.1 114.99-8.85L114.99-8.85Q113.74-5.1 112.74-1.6 111.74 1.9 111.19 4.7 110.64 7.5 110.64 9.2L110.64 9.2Q110.64 11.6 111.59 11.6ZM118.09-17.15L118.09-17.15Q121.34-20.15 123.71-23.18 126.09-26.2 127.39-28.58 128.69-30.95 128.69-31.95L128.69-31.95Q128.69-32.65 127.99-32.65L127.99-32.65Q126.69-32.65 125.04-30.53 123.39-28.4 121.59-24.9 119.79-21.4 118.09-17.15ZM128.68 14L128.68 14Q127.43 14 126.48 13.33 125.53 12.65 125.53 11.35L125.53 11.35Q125.53 9.75 126.33 8.5 127.13 7.25 128.48 6.2 129.83 5.15 131.58 4.2 133.33 3.25 135.23 2.3L135.23 2.3Q135.93 0.45 136.66-1.83 137.38-4.1 138.03-6.85L138.03-6.85Q136.43-4.25 134.61-2.38 132.78-0.5 130.73-0.5L130.73-0.5Q129.78-0.5 128.86-0.93 127.93-1.35 127.33-2.25 126.73-3.15 126.73-4.55L126.73-4.55Q126.73-5.95 127.21-7.8 127.68-9.65 128.38-11.4 129.08-13.15 129.83-14.3 130.58-15.45 131.13-15.45L131.13-15.45Q131.33-15.45 131.86-15.3 132.38-15.15 132.86-14.88 133.33-14.6 133.33-14.3L133.33-14.3Q132.88-13.65 132.33-12.45 131.78-11.25 131.26-9.78 130.73-8.3 130.38-6.9 130.03-5.5 130.03-4.5L130.03-4.5Q130.03-3.6 130.43-3.05 130.83-2.5 131.83-2.5L131.83-2.5Q132.78-2.5 133.96-3.43 135.13-4.35 136.31-5.8 137.48-7.25 138.48-8.9L138.48-8.9Q138.63-9.45 138.76-10.03 138.88-10.6 138.98-11.2L138.98-11.2Q139.13-11.9 139.71-12.83 140.28-13.75 141.53-13.75L141.53-13.75Q141.78-13.75 142.03-13.73 142.28-13.7 142.58-13.6L142.58-13.6Q142.58-12.8 142.11-10.63 141.63-8.45 140.76-5.55 139.88-2.65 138.68 0.4L138.68 0.4Q141.03-0.5 143.28-2.58 145.53-4.65 146.93-8.1L146.93-8.1 147.58-7.6Q146.83-5.2 145.31-3.43 143.78-1.65 141.88-0.38 139.98 0.9 138.13 1.75L138.13 1.75Q136.83 4.95 135.31 7.75 133.78 10.55 132.11 12.28 130.43 14 128.68 14ZM128.43 12.4L128.43 12.4Q129.18 12.4 130.96 10.43 132.73 8.45 134.73 3.5L134.73 3.5Q132.68 4.6 130.93 5.68 129.18 6.75 128.13 8 127.08 9.25 127.08 10.9L127.08 10.9Q127.08 11.3 127.38 11.85 127.68 12.4 128.43 12.4Z" opacity="1" transform="matrix(1,0,0,1,0,0)" fill="#c05858" class="undefined-text-0" data-fill-palette-color="primary" id="text-0"></path></svg></g></svg></g><g transform="matrix(1,0,0,1,0,174.179818574929)"><svg viewBox="0 0 232.209792 19.939998907069103" height="19.939998907069103" width="232.209792"><g transform="matrix(1,0,0,1,0,0)"><svg width="232.209792" viewBox="5.199999809265137 -38.70000076293945 566.489990234375 48.650001525878906" height="19.939998907069103" data-palette-color="#6936f5"><path d="M5.2-36.15L14.85-36.15Q18.8-36.15 21.6-34.83 24.4-33.5 25.93-31 27.45-28.5 27.45-24.95L27.45-24.95Q27.45-22.8 26.8-20.73 26.15-18.65 24.73-16.98 23.3-15.3 21-14.3 18.7-13.3 15.4-13.3L15.4-13.3 10.05-13.3 10.05 0 5.2 0 5.2-36.15ZM10.05-17.95L15.35-17.95Q17.5-17.95 18.9-18.65 20.3-19.35 21.1-20.43 21.9-21.5 22.25-22.7 22.6-23.9 22.6-24.85L22.6-24.85Q22.6-25.95 22.25-27.13 21.9-28.3 21.08-29.28 20.25-30.25 18.93-30.88 17.6-31.5 15.65-31.5L15.65-31.5 10.05-31.5 10.05-17.95ZM42.4 0.5L42.4 0.5Q39.5 0.5 37.12-0.75 34.75-2 33.37-4.42 32-6.85 32-10.35L32-10.35Q32-13.8 33.45-16.32 34.9-18.85 37.32-20.2 39.75-21.55 42.65-21.55L42.65-21.55Q45.55-21.55 47.55-20.23 49.55-18.9 50.6-17.1L50.6-17.1 50.3-16.3 50.75-20.7 55.05-20.7 55.05 0 50.4 0 50.4-5.4 50.9-4.2Q50.7-3.7 50.02-2.93 49.35-2.15 48.22-1.35 47.1-0.55 45.65-0.03 44.2 0.5 42.4 0.5ZM43.65-3.35L43.65-3.35Q45.4-3.35 46.8-4 48.2-4.65 49.12-5.83 50.05-7 50.4-8.65L50.4-8.65 50.4-12.7Q50-14.2 49-15.33 48-16.45 46.6-17.07 45.2-17.7 43.5-17.7L43.5-17.7Q41.65-17.7 40.1-16.8 38.55-15.9 37.62-14.3 36.7-12.7 36.7-10.55L36.7-10.55Q36.7-8.55 37.65-6.9 38.6-5.25 40.2-4.3 41.8-3.35 43.65-3.35ZM68.9 0.4L68.9 0.4Q66.7 0.4 64.62-0.38 62.55-1.15 61.2-2.7L61.2-2.7 63.15-5.4Q64.45-4.15 65.82-3.53 67.2-2.9 68.55-2.9L68.55-2.9Q69.55-2.9 70.4-3.15 71.25-3.4 71.77-3.98 72.3-4.55 72.3-5.55L72.3-5.55Q72.3-6.65 71.57-7.3 70.84-7.95 69.72-8.35 68.59-8.75 67.34-9.1L67.34-9.1Q64.8-9.95 63.45-11.45 62.09-12.95 62.09-15.1L62.09-15.1Q62.09-16.75 62.92-18.18 63.75-19.6 65.37-20.5 67-21.4 69.4-21.4L69.4-21.4Q71.55-21.4 73.25-20.88 74.95-20.35 76.45-19.15L76.45-19.15 74.59-16.25Q73.7-17.2 72.45-17.65 71.2-18.1 70.2-18.15L70.2-18.15Q69.34-18.2 68.57-17.9 67.8-17.6 67.3-17.05 66.8-16.5 66.8-15.75L66.8-15.75Q66.8-14.7 67.5-14.05 68.2-13.4 69.32-13.03 70.45-12.65 71.55-12.25L71.55-12.25Q73.09-11.8 74.3-11.05 75.5-10.3 76.22-9.2 76.95-8.1 76.95-6.45L76.95-6.45Q76.95-4.6 76.07-3.03 75.2-1.45 73.42-0.53 71.65 0.4 68.9 0.4ZM89.24 0.4L89.24 0.4Q87.04 0.4 84.97-0.38 82.89-1.15 81.54-2.7L81.54-2.7 83.49-5.4Q84.79-4.15 86.17-3.53 87.54-2.9 88.89-2.9L88.89-2.9Q89.89-2.9 90.74-3.15 91.59-3.4 92.12-3.98 92.64-4.55 92.64-5.55L92.64-5.55Q92.64-6.65 91.92-7.3 91.19-7.95 90.07-8.35 88.94-8.75 87.69-9.1L87.69-9.1Q85.14-9.95 83.79-11.45 82.44-12.95 82.44-15.1L82.44-15.1Q82.44-16.75 83.27-18.18 84.09-19.6 85.72-20.5 87.34-21.4 89.74-21.4L89.74-21.4Q91.89-21.4 93.59-20.88 95.29-20.35 96.79-19.15L96.79-19.15 94.94-16.25Q94.04-17.2 92.79-17.65 91.54-18.1 90.54-18.15L90.54-18.15Q89.69-18.2 88.92-17.9 88.14-17.6 87.64-17.05 87.14-16.5 87.14-15.75L87.14-15.75Q87.14-14.7 87.84-14.05 88.54-13.4 89.67-13.03 90.79-12.65 91.89-12.25L91.89-12.25Q93.44-11.8 94.64-11.05 95.84-10.3 96.57-9.2 97.29-8.1 97.29-6.45L97.29-6.45Q97.29-4.6 96.42-3.03 95.54-1.45 93.77-0.53 91.99 0.4 89.24 0.4ZM113.04-20.7L117.04-20.7 123.14-6.75 122.24-6.65 127.94-20.7 132.49-20.7 122.99 1.25 116.34-12.95 110.29 1.25 100.69-20.7 105.24-20.7 111.69-6.1 110.09-6.4 114.69-17.1 113.04-20.7ZM135.19-10.55L135.19-10.55Q135.19-13.65 136.66-16.15 138.14-18.65 140.74-20.1 143.34-21.55 146.64-21.55L146.64-21.55Q150.04-21.55 152.59-20.1 155.14-18.65 156.54-16.15 157.94-13.65 157.94-10.55L157.94-10.55Q157.94-7.45 156.54-4.93 155.14-2.4 152.56-0.95 149.99 0.5 146.59 0.5L146.59 0.5Q143.29 0.5 140.71-0.88 138.14-2.25 136.66-4.73 135.19-7.2 135.19-10.55ZM139.84-10.5L139.84-10.5Q139.84-8.5 140.74-6.88 141.64-5.25 143.16-4.3 144.69-3.35 146.54-3.35L146.54-3.35Q148.49-3.35 150.01-4.3 151.54-5.25 152.39-6.88 153.24-8.5 153.24-10.5L153.24-10.5Q153.24-12.5 152.39-14.13 151.54-15.75 150.01-16.73 148.49-17.7 146.54-17.7L146.54-17.7Q144.64-17.7 143.11-16.7 141.59-15.7 140.71-14.08 139.84-12.45 139.84-10.5ZM164.24-20.7L168.38-20.7 168.84-14.7 168.59-15.5Q169.38-17.4 170.91-18.73 172.44-20.05 174.11-20.78 175.78-21.5 177.03-21.5L177.03-21.5 176.78-16.9Q174.44-17.05 172.66-16 170.88-14.95 169.86-13.2 168.84-11.45 168.84-9.45L168.84-9.45 168.84 0 164.24 0 164.24-20.7ZM190.53 0.5L190.53 0.5Q187.68 0.5 185.36-0.88 183.03-2.25 181.68-4.78 180.33-7.3 180.33-10.6L180.33-10.6Q180.33-14.05 181.76-16.5 183.18-18.95 185.63-20.25 188.08-21.55 191.13-21.55L191.13-21.55Q193.58-21.55 195.81-20.5 198.03-19.45 199.28-17.6L199.28-17.6 199.08-15.95 199.08-38.7 203.68-38.7 203.68 0 199.03 0 199.03-5.15 199.53-3.85Q198.08-1.95 195.78-0.73 193.48 0.5 190.53 0.5ZM191.98-3.45L191.98-3.45Q193.83-3.45 195.28-4.13 196.73-4.8 197.68-6 198.63-7.2 199.03-8.85L199.03-8.85 199.03-12.75Q198.63-14.25 197.61-15.38 196.58-16.5 195.16-17.18 193.73-17.85 191.98-17.85L191.98-17.85Q190.08-17.85 188.51-16.93 186.93-16 185.98-14.4 185.03-12.8 185.03-10.7L185.03-10.7Q185.03-8.65 185.98-7.03 186.93-5.4 188.53-4.42 190.13-3.45 191.98-3.45ZM228.73 0L228.73-36.15 233.58-36.15 233.58 0 228.73 0ZM248.63 0.4L248.63 0.4Q246.43 0.4 244.35-0.38 242.28-1.15 240.93-2.7L240.93-2.7 242.88-5.4Q244.18-4.15 245.55-3.53 246.93-2.9 248.28-2.9L248.28-2.9Q249.28-2.9 250.13-3.15 250.98-3.4 251.5-3.98 252.03-4.55 252.03-5.55L252.03-5.55Q252.03-6.65 251.3-7.3 250.58-7.95 249.45-8.35 248.33-8.75 247.08-9.1L247.08-9.1Q244.53-9.95 243.18-11.45 241.83-12.95 241.83-15.1L241.83-15.1Q241.83-16.75 242.65-18.18 243.48-19.6 245.1-20.5 246.73-21.4 249.13-21.4L249.13-21.4Q251.28-21.4 252.98-20.88 254.68-20.35 256.18-19.15L256.18-19.15 254.33-16.25Q253.43-17.2 252.18-17.65 250.93-18.1 249.93-18.15L249.93-18.15Q249.08-18.2 248.3-17.9 247.53-17.6 247.03-17.05 246.53-16.5 246.53-15.75L246.53-15.75Q246.53-14.7 247.23-14.05 247.93-13.4 249.05-13.03 250.18-12.65 251.28-12.25L251.28-12.25Q252.83-11.8 254.03-11.05 255.23-10.3 255.95-9.2 256.68-8.1 256.68-6.45L256.68-6.45Q256.68-4.6 255.8-3.03 254.93-1.45 253.15-0.53 251.38 0.4 248.63 0.4ZM289.72 0L289.72-12.05 276.32-36.15 282.27-36.15 293.02-16.2 291.52-16.1 302.17-36.15 308.07-36.15 294.57-12.05 294.57 0 289.72 0ZM306.42-10.55L306.42-10.55Q306.42-13.65 307.89-16.15 309.37-18.65 311.97-20.1 314.57-21.55 317.87-21.55L317.87-21.55Q321.27-21.55 323.82-20.1 326.37-18.65 327.77-16.15 329.17-13.65 329.17-10.55L329.17-10.55Q329.17-7.45 327.77-4.93 326.37-2.4 323.79-0.95 321.22 0.5 317.82 0.5L317.82 0.5Q314.52 0.5 311.94-0.88 309.37-2.25 307.89-4.73 306.42-7.2 306.42-10.55ZM311.07-10.5L311.07-10.5Q311.07-8.5 311.97-6.88 312.87-5.25 314.39-4.3 315.92-3.35 317.77-3.35L317.77-3.35Q319.72-3.35 321.24-4.3 322.77-5.25 323.62-6.88 324.47-8.5 324.47-10.5L324.47-10.5Q324.47-12.5 323.62-14.13 322.77-15.75 321.24-16.73 319.72-17.7 317.77-17.7L317.77-17.7Q315.87-17.7 314.34-16.7 312.82-15.7 311.94-14.08 311.07-12.45 311.07-10.5ZM342.02 0.8L342.02 0.8Q339.22 0.8 337.39-0.93 335.57-2.65 335.47-5.4L335.47-5.4 335.47-20.7 340.12-20.7 340.12-7.05Q340.22-5.35 341.09-4.3 341.97-3.25 343.87-3.2L343.87-3.2Q345.62-3.2 346.99-4.23 348.37-5.25 349.22-7.03 350.07-8.8 350.07-11.05L350.07-11.05 350.07-20.7 354.72-20.7 354.72 0 350.47 0 350.07-5.1 350.32-4.2Q349.72-2.75 348.49-1.63 347.27-0.5 345.62 0.15 343.97 0.8 342.02 0.8ZM362.76-20.7L366.91-20.7 367.36-14.7 367.11-15.5Q367.91-17.4 369.44-18.73 370.96-20.05 372.64-20.78 374.31-21.5 375.56-21.5L375.56-21.5 375.31-16.9Q372.96-17.05 371.19-16 369.41-14.95 368.39-13.2 367.36-11.45 367.36-9.45L367.36-9.45 367.36 0 362.76 0 362.76-20.7ZM419.06-33.4L417.21-29.7Q415.36-30.65 413.16-31.35 410.96-32.05 408.86-32.05L408.86-32.05Q405.96-32.05 404.23-30.7 402.51-29.35 402.51-27.1L402.51-27.1Q402.51-25.4 403.61-24.23 404.71-23.05 406.51-22.2 408.31-21.35 410.26-20.6L410.26-20.6Q411.96-19.95 413.61-19.15 415.26-18.35 416.58-17.15 417.91-15.95 418.68-14.2 419.46-12.45 419.46-9.85L419.46-9.85Q419.46-7 418.03-4.65 416.61-2.3 413.96-0.95 411.31 0.4 407.66 0.4L407.66 0.4Q405.26 0.4 403.08-0.15 400.91-0.7 399.06-1.58 397.21-2.45 395.76-3.4L395.76-3.4 397.91-7.2Q399.11-6.35 400.66-5.58 402.21-4.8 403.91-4.33 405.61-3.85 407.21-3.85L407.21-3.85Q408.91-3.85 410.58-4.48 412.26-5.1 413.36-6.4 414.46-7.7 414.46-9.85L414.46-9.85Q414.46-11.7 413.48-12.93 412.51-14.15 410.91-15.03 409.31-15.9 407.51-16.6L407.51-16.6Q405.81-17.25 404.06-18.03 402.31-18.8 400.81-19.93 399.31-21.05 398.41-22.7 397.51-24.35 397.51-26.7L397.51-26.7Q397.51-29.55 398.88-31.68 400.26-33.8 402.66-35.02 405.06-36.25 408.16-36.35L408.16-36.35Q411.66-36.35 414.33-35.5 417.01-34.65 419.06-33.4L419.06-33.4ZM436.06 0.5L436.06 0.5Q432.51 0.5 429.96-0.93 427.41-2.35 426.03-4.83 424.66-7.3 424.66-10.5L424.66-10.5Q424.66-13.55 426.21-16.05 427.76-18.55 430.36-20.05 432.96-21.55 436.16-21.55L436.16-21.55Q440.26-21.55 442.96-19.15 445.66-16.75 446.61-12.55L446.61-12.55 429.56-6.55 428.46-9.3 442.46-14.4 441.46-13.75Q440.86-15.4 439.46-16.63 438.06-17.85 435.81-17.85L435.81-17.85Q433.91-17.85 432.41-16.93 430.91-16 430.06-14.4 429.21-12.8 429.21-10.75L429.21-10.75Q429.21-8.6 430.11-6.98 431.01-5.35 432.58-4.42 434.16-3.5 436.16-3.5L436.16-3.5Q437.51-3.5 438.78-4 440.06-4.5 441.16-5.3L441.16-5.3 443.31-1.85Q441.76-0.8 439.83-0.15 437.91 0.5 436.06 0.5ZM466.85-4.85L469.25-1.9Q467.85-0.8 465.9-0.15 463.95 0.5 462 0.5L462 0.5Q458.6 0.5 456.05-0.85 453.5-2.2 452.08-4.63 450.65-7.05 450.65-10.35L450.65-10.35Q450.65-13.65 452.18-16.1 453.7-18.55 456.18-19.88 458.65-21.2 461.5-21.2L461.5-21.2Q464-21.2 465.98-20.5 467.95-19.8 469.35-18.6L469.35-18.6 467.05-15.6Q466.15-16.3 464.85-16.85 463.55-17.4 461.9-17.4L461.9-17.4Q460.1-17.4 458.58-16.48 457.05-15.55 456.18-13.95 455.3-12.35 455.3-10.35L455.3-10.35Q455.3-8.45 456.2-6.83 457.1-5.2 458.7-4.28 460.3-3.35 462.35-3.35L462.35-3.35Q463.7-3.35 464.83-3.75 465.95-4.15 466.85-4.85L466.85-4.85ZM481.8 0.8L481.8 0.8Q479 0.8 477.18-0.93 475.35-2.65 475.25-5.4L475.25-5.4 475.25-20.7 479.9-20.7 479.9-7.05Q480-5.35 480.88-4.3 481.75-3.25 483.65-3.2L483.65-3.2Q485.4-3.2 486.78-4.23 488.15-5.25 489-7.03 489.85-8.8 489.85-11.05L489.85-11.05 489.85-20.7 494.5-20.7 494.5 0 490.25 0 489.85-5.1 490.1-4.2Q489.5-2.75 488.28-1.63 487.05-0.5 485.4 0.15 483.75 0.8 481.8 0.8ZM502.55-20.7L506.7-20.7 507.15-14.7 506.9-15.5Q507.7-17.4 509.22-18.73 510.75-20.05 512.42-20.78 514.1-21.5 515.35-21.5L515.35-21.5 515.1-16.9Q512.75-17.05 510.97-16 509.2-14.95 508.17-13.2 507.15-11.45 507.15-9.45L507.15-9.45 507.15 0 502.55 0 502.55-20.7ZM521.35 0L521.35-20.7 526-20.7 526 0 521.35 0ZM521-28.2L521-28.2Q521-29.3 521.87-30.05 522.75-30.8 523.8-30.8L523.8-30.8Q524.85-30.8 525.67-30.05 526.5-29.3 526.5-28.2L526.5-28.2Q526.5-27.05 525.67-26.33 524.85-25.6 523.8-25.6L523.8-25.6Q522.75-25.6 521.87-26.35 521-27.1 521-28.2ZM536.04-20.6L536.04-29.8 540.69-29.8 540.69-20.6 546.39-20.6 546.39-16.95 540.69-16.95 540.69 0 536.04 0 536.04-16.95 532.24-16.95 532.24-20.6 536.04-20.6ZM558.34 9.95L553.74 9.95 567.39-20.7 571.69-20.7 558.34 9.95ZM562.49-2.2L558.84 0.15 548.89-20.7 554.14-20.7 562.49-2.2Z" opacity="1" transform="matrix(1,0,0,1,0,0)" fill="#6936f5" class="undefined-text-1" data-fill-palette-color="secondary" id="text-1"></path></svg></g></svg></g></svg></g></svg></g><g transform="matrix(1,0,0,1,75.92204159999999,0)"><svg viewBox="0 0 245.65351679999995 284.55382201961794" height="284.55382201961794" width="245.65351679999995"><g><svg xmlns="http://www.w3.org/2000/svg" xmlns:xlink="http://www.w3.org/1999/xlink" version="1.1" x="0" y="0" viewBox="9.63800048828125 3.246999979019165 80.7239990234375 93.50699615478516" enable-background="new 0 0 100 100" xml:space="preserve" height="284.55382201961794" width="245.65351679999995" class="icon-icon-0" data-fill-palette-color="accent" id="icon-0"><g fill="#6936f5" data-fill-palette-color="accent"><g fill="#6936f5" data-fill-palette-color="accent"><polygon points="36.703,11.011 9.638,26.636 9.638,38.757 36.703,23.131 63.767,38.757 63.767,26.636   " fill="#6936f5" data-fill-palette-color="accent"></polygon></g><g fill="#6936f5" data-fill-palette-color="accent"><polygon points="63.298,89.092 36.233,73.467 36.233,61.348 63.298,76.973 90.362,61.348 90.362,73.467   " fill="#6936f5" data-fill-palette-color="accent"></polygon></g><g fill="#6936f5" data-fill-palette-color="accent"><polygon points="9.638,42.012 36.703,26.386 47.198,32.446 20.134,48.072 20.134,79.324 9.638,73.264   " fill="#6936f5" data-fill-palette-color="accent"></polygon></g><g fill="#6936f5" data-fill-palette-color="accent"><polygon points="77.083,18.872 50.018,3.247 39.522,9.307 66.586,24.932 66.586,56.184 77.083,50.124   " fill="#6936f5" data-fill-palette-color="accent"></polygon></g><g fill="#6936f5" data-fill-palette-color="accent"><polygon points="23.01,81.127 23.011,49.876 33.507,43.816 33.507,75.068 60.571,90.693 50.075,96.754   " fill="#6936f5" data-fill-palette-color="accent"></polygon></g><g fill="#6936f5" data-fill-palette-color="accent"><polygon points="90.362,58.092 90.362,26.84 79.866,20.78 79.866,52.031 52.802,67.658 63.298,73.719   " fill="#6936f5" data-fill-palette-color="accent"></polygon></g></g></svg></g></svg></g><g></g></svg></g><defs></defs></svg><rect width="192.57886531432595" height="247.2" fill="none" stroke="none" visibility="hidden"></rect></g></svg></g></svg>